{"title":"Riddick  (Sci-Fi Thriller 2013)  Vin Diesel, Karl Urban &amp; Ka","uid":9460526,"size":501910027,"categoryP":"video","categoryS":"movies","magnet":"?xt=urn:btih:490277378e153ceb6a2cc09b6c5b03eb8f2982e4&amp;dn=Riddick++%28Sci-Fi+Thriller+2013%29++Vin+Diesel%2C+Karl+Urban+%26amp%3B+Ka&amp;tr=udp%3A%2F%2Ftracker.openbittorrent.com%3A80&amp;tr=udp%3A%2F%2Fopen.demonii.com%3A1337&amp;tr=udp%3A%2F%2Ftracker.coppersurfer.tk%3A6969&amp;tr=udp%3A%2F%2Fexodus.desync.com%3A6969","seeders":5,"leechers":1,"uploader":"BurtonW","files":1,"time":1389344206,"description":" &lt;a href=&quot;http://www.imdb.com/title/tt1411250/?ref_=fn_al_tt_1&quot; rel=&quot;nofollow&quot; target=&quot;_NEW&quot;&gt;http://www.imdb.com/title/tt1411250/?ref_=fn_al_tt_1&lt;/a&gt;\n\n\nScreenshots may be viewed here:\n\n  \n\n\nA very good quality small file film.\n\nNo subtitles!\n\nStoryline:\n\nBetrayed by his own kind and left for dead on a desolate planet, Riddick fights for survival against alien predators and becomes more powerful and dangerous than ever before. Soon bounty hunters from throughout the galaxy descend on Riddick only to find themselves pawns in his greater scheme for revenge. With his enemies right where he wants them, Riddick unleashes a vicious attack of vengeance before returning to his home planet of Furya to save it from destruction.\n\n\nTechnical info:\n\nGeneral:\n\nComplete name: : Riddick (Sci-Fi Thriller 2013) Vin Diesel, Karl Urban &amp; Katee Sackhoff.mp4\n\nFormat : MPEG-4\nFormat profile : Base Media / Version 2\nCodec ID : mp42\nFile size : 479 MiB\nDuration : 2h 6mn\nOverall bit rate mode : Variable\nOverall bit rate : 528 Kbps\nEncoded date : UTC 2014-01-10 04:01:53\nTagged date : UTC 2014-01-10 07:10:33\n\n\nVideo:\n\nID : 1\nFormat : AVC\nFormat/Info : Advanced Video Codec\nFormat profile : &lt;a class=&quot;__cf_email__&quot; href=&quot;/cdn-cgi/l/email-protection&quot; data-cfemail=&quot;cc81ada5a28c80f8e2fc&quot;&gt;[email&amp;#160;protected]&lt;/a&gt;&lt;script cf-hash='f9e31' type=&quot;text/javascript&quot;&gt;\n/* &lt;![CDATA[ */!function(){try{var t=&quot;currentScript&quot;in document?document.currentScript:function(){for(var t=document.getElementsByTagName(&quot;script&quot;),e=t.length;e--;)if(t[e].getAttribute(&quot;cf-hash&quot;))return t[e]}();if(t&amp;&amp;t.previousSibling){var e,r,n,i,c=t.previousSibling,a=c.getAttribute(&quot;data-cfemail&quot;);if(a){for(e=&quot;&quot;,r=parseInt(a.substr(0,2),16),n=2;a.length-n;n+=2)i=parseInt(a.substr(n,2),16)^r,e+=String.fromCharCode(i);e=document.createTextNode(e),c.parentNode.replaceChild(e,c)}}}catch(u){}}();/* ]]&gt; */&lt;/script&gt;\nFormat settings, CABAC : Yes\nFormat settings, ReFrames : 8 frames\nCodec ID : avc1\nCodec ID/Info : Advanced Video Coding\nDuration : 2h 6mn\nBit rate mode : Variable\nBit rate : 368 Kbps\nWidth : 720 pixels\nHeight : 304 pixels\nDisplay aspect ratio : 2.35:1\nFrame rate mode : Variable\nFrame rate : 23.976 fps\nMinimum frame rate : 23.974 fps\nMaximum frame rate : 23.981 fps\nColor space : YUV\nChroma subsampling : 4:2:0\nBit depth : 8 bits\nScan type : Progressive\nBits/(Pixel*Frame) : 0.070\nStream size : 333 MiB (70%)\nWriting library : x264 core 130 r2273 b3065e6\nEncoding settings : Deleted\nEncoded date : UTC 2014-01-10 04:01:53\nTagged date : UTC 2014-01-10 07:10:33\nColor primaries : BT.709\nTransfer characteristics : BT.709\nMatrix coefficients : BT.709\n\nAudio:\n\nID : 2\nFormat : AAC\nFormat/Info : Advanced Audio Codec\nFormat profile : LC\nCodec ID : 40\nDuration : 2h 6mn\nBit rate mode : Variable\nBit rate : 155 Kbps\nMaximum bit rate : 350 Kbps\nChannel(s) : 2 channels\nChannel positions : Front: L R\nSampling rate : 48.0 KHz\nCompression mode : Lossy\nDelay relative to video : 83ms\nStream size : 141 MiB (29%)\nEncoded date : UTC 2014-01-10 04:01:53\nTagged date : UTC 2014-01-10 07:10:32\n","torrent":{"xt":"urn:btih:490277378e153ceb6a2cc09b6c5b03eb8f2982e4","amp;dn":"Riddick++%28Sci-Fi+Thriller+2013%29++Vin+Diesel%2C+Karl+Urban+%26amp%3B+Ka","amp;tr":["udp%3A%2F%2Ftracker.openbittorrent.com%3A80","udp%3A%2F%2Fopen.demonii.com%3A1337","udp%3A%2F%2Ftracker.coppersurfer.tk%3A6969","udp%3A%2F%2Fexodus.desync.com%3A6969"],"infoHash":"490277378e153ceb6a2cc09b6c5b03eb8f2982e4","infoHashBuffer":{"type":"Buffer","data":[73,2,119,55,142,21,60,235,106,44,192,155,108,91,3,235,143,41,130,228]},"announce":[],"urlList":[]}}